# Blender v2.69 (sub 0) OBJ File: ''
# www.blender.org
mtllib sphere.mtl
o Icosphere
v 0.000000 -1.000000 0.000000
v 0.723607 -0.447220 0.525725
v -0.276388 -0.447220 0.850649
v -0.894426 -0.447216 0.000000
v -0.276388 -0.447220 -0.850649
v 0.723607 -0.447220 -0.525725
v 0.276388 0.447220 0.850649
v -0.723607 0.447220 0.525725
v -0.723607 0.447220 -0.525725
v 0.276388 0.447220 -0.850649
v 0.894426 0.447216 0.000000
v 0.000000 1.000000 0.000000
v -0.162456 -0.850654 0.499995
v 0.425323 -0.850654 0.309011
v 0.262869 -0.525738 0.809012
v 0.850648 -0.525736 0.000000
v 0.425323 -0.850654 -0.309011
v -0.525730 -0.850652 0.000000
v -0.688189 -0.525736 0.499997
v -0.162456 -0.850654 -0.499995
v -0.688189 -0.525736 -0.499997
v 0.262869 -0.525738 -0.809012
v 0.951058 0.000000 0.309013
v 0.951058 0.000000 -0.309013
v 0.000000 0.000000 1.000000
v 0.587786 0.000000 0.809017
v -0.951058 0.000000 0.309013
v -0.587786 0.000000 0.809017
v -0.587786 0.000000 -0.809017
v -0.951058 0.000000 -0.309013
v 0.587786 0.000000 -0.809017
v 0.000000 0.000000 -1.000000
v 0.688189 0.525736 0.499997
v -0.262869 0.525738 0.809012
v -0.850648 0.525736 0.000000
v -0.262869 0.525738 -0.809012
v 0.688189 0.525736 -0.499997
v 0.162456 0.850654 0.499995
v 0.525730 0.850652 0.000000
v -0.425323 0.850654 0.309011
v -0.425323 0.850654 -0.309011
v 0.162456 0.850654 -0.499995
vt 0.342724 0.086775
vt 0.434089 0.203369
vt 0.289538 0.202459
vt 0.431055 0.330871
vt 0.557689 0.316888
vt 0.194871 0.093465
vt 0.893037 0.489058
vt 0.988803 0.593160
vt 0.849310 0.604301
vt 0.771171 0.512880
vt 0.466874 0.430284
vt 0.253220 0.291790
vt 0.340070 0.300562
vt 0.276202 0.369911
vt 0.066950 0.167909
vt 0.174311 0.236359
vt 0.053282 0.315406
vt 0.797469 0.688311
vt 0.908244 0.731344
vt 0.783988 0.779338
vt 0.674323 0.552455
vt 0.741396 0.618839
vt 0.644560 0.643081
vt 0.363786 0.395536
vt 0.184957 0.346198
vt 0.986361 0.849352
vt 0.945238 0.984679
vt 0.860195 0.867804
vt 0.713934 0.710173
vt 0.551025 0.550881
vt 0.298544 0.445853
vt 0.371743 0.498201
vt 0.265356 0.529501
vt 0.124880 0.420952
vt 0.216449 0.438884
vt 0.148605 0.523923
vt 0.750944 0.872091
vt 0.785644 0.991545
vt 0.639154 0.926848
vt 0.632714 0.729809
vt 0.682935 0.802329
vt 0.573130 0.804199
vt 0.436850 0.634514
vt 0.546217 0.690031
vt 0.436850 0.775941
vt 0.656832 0.430505
vt 0.807268 0.376690
vt 0.043646 0.021750
vt 0.604242 0.477511
vt 0.479851 0.557641
vt 0.010851 0.477775
vt 0.354856 0.637252
vt 0.206664 0.638015
vt 0.058699 0.638015
vt 0.499769 0.902581
vn 0.102381 -0.943523 0.315090
vn 0.700224 -0.661699 0.268032
vn -0.268034 -0.943523 0.194737
vn -0.268034 -0.943523 -0.194737
vn 0.102381 -0.943523 -0.315090
vn 0.904989 -0.330385 0.268032
vn 0.024747 -0.330386 0.943521
vn -0.889697 -0.330385 0.315095
vn -0.574602 -0.330388 -0.748784
vn 0.534576 -0.330387 -0.777865
vn 0.802609 -0.125627 0.583126
vn -0.306569 -0.125629 0.943522
vn -0.992077 -0.125628 0.000000
vn -0.306569 -0.125629 -0.943522
vn 0.802609 -0.125627 -0.583126
vn 0.408946 0.661698 0.628425
vn -0.471300 0.661698 0.583122
vn -0.700224 0.661699 -0.268032
vn 0.038530 0.661699 -0.748779
vn 0.724042 0.661695 -0.194736
vn -0.038531 -0.661699 0.748779
vn 0.187594 -0.794658 0.577345
vn 0.471300 -0.661699 0.583122
vn 0.700224 -0.661699 -0.268032
vn 0.607060 -0.794656 0.000000
vn 0.331305 -0.943524 0.000000
vn -0.724042 -0.661695 0.194736
vn -0.491120 -0.794657 0.356821
vn -0.408946 -0.661698 0.628425
vn -0.408946 -0.661698 -0.628425
vn -0.491120 -0.794657 -0.356821
vn -0.724042 -0.661695 -0.194736
vn 0.471300 -0.661699 -0.583122
vn 0.187594 -0.794658 -0.577345
vn -0.038531 -0.661699 -0.748779
vn 0.992077 0.125628 0.000000
vn 0.982246 -0.187598 0.000000
vn 0.904989 -0.330385 -0.268032
vn 0.306569 0.125629 0.943522
vn 0.303531 -0.187597 0.934171
vn 0.534576 -0.330386 0.777865
vn -0.802609 0.125627 0.583126
vn -0.794656 -0.187595 0.577348
vn -0.574602 -0.330388 0.748784
vn -0.802609 0.125627 -0.583126
vn -0.794656 -0.187595 -0.577348
vn -0.889697 -0.330385 -0.315095
vn 0.306569 0.125629 -0.943522
vn 0.303531 -0.187597 -0.934171
vn 0.024747 -0.330386 -0.943521
vn 0.574602 0.330388 0.748784
vn 0.794656 0.187595 0.577348
vn 0.889697 0.330385 0.315095
vn -0.534576 0.330386 0.777865
vn -0.303531 0.187597 0.934171
vn -0.024747 0.330386 0.943521
vn -0.904989 0.330385 -0.268032
vn -0.982246 0.187598 0.000000
vn -0.904989 0.330385 0.268032
vn -0.024747 0.330386 -0.943521
vn -0.303531 0.187597 -0.934171
vn -0.534576 0.330386 -0.777865
vn 0.889697 0.330385 -0.315095
vn 0.794656 0.187595 -0.577348
vn 0.574602 0.330388 -0.748784
vn 0.268034 0.943523 0.194737
vn 0.491119 0.794657 0.356821
vn 0.724042 0.661695 0.194736
vn -0.102381 0.943523 0.315090
vn -0.187594 0.794658 0.577345
vn 0.038530 0.661699 0.748779
vn -0.331305 0.943524 0.000000
vn -0.607060 0.794656 0.000000
vn -0.700224 0.661699 0.268032
vn -0.102381 0.943523 -0.315090
vn -0.187594 0.794658 -0.577345
vn -0.471300 0.661699 -0.583122
vn 0.268034 0.943523 -0.194737
vn 0.491119 0.794657 -0.356821
vn 0.408946 0.661699 -0.628425
usemtl Material.001
s off
f 1/1/1 14/2/1 13/3/1
f 2/4/2 14/2/2 16/5/2
f 1/1/3 13/3/3 18/6/3
f 1/7/4 18/8/4 20/9/4
f 1/7/5 20/9/5 17/10/5
f 2/4/6 16/5/6 23/11/6
f 3/12/7 15/13/7 25/14/7
f 4/15/8 19/16/8 27/17/8
f 5/18/9 21/19/9 29/20/9
f 6/21/10 22/22/10 31/23/10
f 2/4/11 23/11/11 26/24/11
f 3/12/12 25/14/12 28/25/12
f 4/26/13 27/27/13 30/28/13
f 5/18/14 29/20/14 32/29/14
f 6/21/15 31/23/15 24/30/15
f 7/31/16 33/32/16 38/33/16
f 8/34/17 34/35/17 40/36/17
f 9/37/18 35/38/18 41/39/18
f 10/40/19 36/41/19 42/42/19
f 11/43/20 37/44/20 39/45/20
f 13/3/21 15/13/21 3/12/21
f 13/3/22 14/2/22 15/13/22
f 14/2/23 2/4/23 15/13/23
f 16/46/24 17/10/24 6/21/24
f 16/46/25 14/47/25 17/10/25
f 14/47/26 1/7/26 17/10/26
f 18/6/27 19/16/27 4/15/27
f 18/6/28 13/3/28 19/16/28
f 13/3/29 3/12/29 19/16/29
f 20/9/30 21/19/30 5/18/30
f 20/9/31 18/8/31 21/19/31
f 18/6/32 4/15/32 21/48/32
f 17/10/33 22/22/33 6/21/33
f 17/10/34 20/9/34 22/22/34
f 20/9/35 5/18/35 22/22/35
f 23/11/36 24/49/36 11/50/36
f 23/11/37 16/5/37 24/49/37
f 16/46/38 6/21/38 24/30/38
f 25/14/39 26/24/39 7/31/39
f 25/14/40 15/13/40 26/24/40
f 15/13/41 2/4/41 26/24/41
f 27/17/42 28/25/42 8/34/42
f 27/17/43 19/16/43 28/25/43
f 19/16/44 3/12/44 28/25/44
f 29/20/45 30/28/45 9/37/45
f 29/20/46 21/19/46 30/28/46
f 21/19/47 4/26/47 30/28/47
f 31/23/48 32/29/48 10/40/48
f 31/23/49 22/22/49 32/29/49
f 22/22/50 5/18/50 32/29/50
f 26/24/51 33/32/51 7/31/51
f 26/24/52 23/11/52 33/32/52
f 23/11/53 11/50/53 33/32/53
f 28/25/54 34/35/54 8/34/54
f 28/25/55 25/14/55 34/35/55
f 25/14/56 7/31/56 34/35/56
f 30/28/57 35/38/57 9/37/57
f 30/28/58 27/27/58 35/38/58
f 27/17/59 8/34/59 35/51/59
f 32/29/60 36/41/60 10/40/60
f 32/29/61 29/20/61 36/41/61
f 29/20/62 9/37/62 36/41/62
f 24/30/63 37/44/63 11/43/63
f 24/30/64 31/23/64 37/44/64
f 31/23/65 10/40/65 37/44/65
f 38/33/66 39/52/66 12/53/66
f 38/33/67 33/32/67 39/52/67
f 33/32/68 11/50/68 39/52/68
f 40/36/69 38/33/69 12/53/69
f 40/36/70 34/35/70 38/33/70
f 34/35/71 7/31/71 38/33/71
f 41/54/72 40/36/72 12/53/72
f 41/54/73 35/51/73 40/36/73
f 35/51/74 8/34/74 40/36/74
f 42/42/75 41/39/75 12/55/75
f 42/42/76 36/41/76 41/39/76
f 36/41/77 9/37/77 41/39/77
f 39/45/78 42/42/78 12/55/78
f 39/45/79 37/44/79 42/42/79
f 37/44/80 10/40/80 42/42/80
